<mxfile host="app.diagrams.net" modified="2022-11-24T10:27:40.241Z" agent="5.0 (Windows NT 10.0; Win64; x64) AppleWebKit/537.36 (KHTML, like Gecko) Chrome/107.0.0.0 Safari/537.36" version="20.6.0" etag="HwgpAquBeQEIHT-X-O2b" type="github">
  <diagram id="Rj5K1OrlHhcxI4BUkwFZ" name="หน้า-1">
    <mxGraphModel dx="1038" dy="513" grid="1" gridSize="10" guides="1" tooltips="1" connect="1" arrows="1" fold="1" page="1" pageScale="1" pageWidth="827" pageHeight="1169" math="0" shadow="0">
      <root>
        <mxCell id="0" />
        <mxCell id="1" parent="0" />
        <mxCell id="d_iLRARLSSdBm1351h-Z-1" value="" style="edgeStyle=orthogonalEdgeStyle;rounded=0;orthogonalLoop=1;jettySize=auto;html=1;" edge="1" parent="1" source="d_iLRARLSSdBm1351h-Z-2" target="d_iLRARLSSdBm1351h-Z-4">
          <mxGeometry relative="1" as="geometry" />
        </mxCell>
        <mxCell id="d_iLRARLSSdBm1351h-Z-2" value="START" style="rounded=1;whiteSpace=wrap;html=1;fillColor=#ffe6cc;strokeColor=#d79b00;" vertex="1" parent="1">
          <mxGeometry x="90" y="180" width="120" height="60" as="geometry" />
        </mxCell>
        <mxCell id="d_iLRARLSSdBm1351h-Z-3" value="" style="endArrow=classic;html=1;rounded=0;exitX=0.5;exitY=1;exitDx=0;exitDy=0;" edge="1" parent="1" source="d_iLRARLSSdBm1351h-Z-2">
          <mxGeometry width="50" height="50" relative="1" as="geometry">
            <mxPoint x="390" y="420" as="sourcePoint" />
            <mxPoint x="150" y="290" as="targetPoint" />
          </mxGeometry>
        </mxCell>
        <mxCell id="d_iLRARLSSdBm1351h-Z-4" value="ตื่น" style="rounded=0;whiteSpace=wrap;html=1;fillColor=#eeeeee;strokeColor=#36393d;" vertex="1" parent="1">
          <mxGeometry x="90" y="290" width="120" height="60" as="geometry" />
        </mxCell>
        <mxCell id="d_iLRARLSSdBm1351h-Z-5" value="" style="endArrow=classic;html=1;rounded=0;exitX=0.5;exitY=1;exitDx=0;exitDy=0;" edge="1" parent="1">
          <mxGeometry width="50" height="50" relative="1" as="geometry">
            <mxPoint x="149.5" y="350" as="sourcePoint" />
            <mxPoint x="149.5" y="400" as="targetPoint" />
          </mxGeometry>
        </mxCell>
        <mxCell id="d_iLRARLSSdBm1351h-Z-6" value="ล้างหน้าเเปรงฟัน&lt;br&gt;เเต่งตัว" style="rounded=0;whiteSpace=wrap;html=1;fillColor=#eeeeee;strokeColor=#36393d;" vertex="1" parent="1">
          <mxGeometry x="90" y="400" width="120" height="60" as="geometry" />
        </mxCell>
        <mxCell id="d_iLRARLSSdBm1351h-Z-7" value="" style="endArrow=classic;html=1;rounded=0;exitX=0.5;exitY=1;exitDx=0;exitDy=0;" edge="1" parent="1">
          <mxGeometry width="50" height="50" relative="1" as="geometry">
            <mxPoint x="149.5" y="460" as="sourcePoint" />
            <mxPoint x="149.5" y="510" as="targetPoint" />
          </mxGeometry>
        </mxCell>
        <mxCell id="d_iLRARLSSdBm1351h-Z-8" value="นั่งรถส่วนตัว" style="rounded=0;whiteSpace=wrap;html=1;fillColor=#eeeeee;strokeColor=#36393d;" vertex="1" parent="1">
          <mxGeometry x="90" y="510" width="120" height="60" as="geometry" />
        </mxCell>
        <mxCell id="d_iLRARLSSdBm1351h-Z-9" value="" style="endArrow=classic;html=1;rounded=0;exitX=0.5;exitY=1;exitDx=0;exitDy=0;" edge="1" parent="1">
          <mxGeometry width="50" height="50" relative="1" as="geometry">
            <mxPoint x="149.5" y="570" as="sourcePoint" />
            <mxPoint x="149.5" y="620" as="targetPoint" />
          </mxGeometry>
        </mxCell>
        <mxCell id="d_iLRARLSSdBm1351h-Z-10" value="YES" style="endArrow=classic;html=1;rounded=0;exitX=1;exitY=0.5;exitDx=0;exitDy=0;" edge="1" parent="1">
          <mxGeometry width="50" height="50" relative="1" as="geometry">
            <mxPoint x="190" y="659.3299999999999" as="sourcePoint" />
            <mxPoint x="250" y="659.3299999999999" as="targetPoint" />
          </mxGeometry>
        </mxCell>
        <mxCell id="d_iLRARLSSdBm1351h-Z-26" value="" style="edgeStyle=orthogonalEdgeStyle;rounded=0;orthogonalLoop=1;jettySize=auto;html=1;" edge="1" parent="1" source="d_iLRARLSSdBm1351h-Z-12" target="d_iLRARLSSdBm1351h-Z-15">
          <mxGeometry relative="1" as="geometry" />
        </mxCell>
        <mxCell id="d_iLRARLSSdBm1351h-Z-27" value="" style="edgeStyle=orthogonalEdgeStyle;rounded=0;orthogonalLoop=1;jettySize=auto;html=1;" edge="1" parent="1" source="d_iLRARLSSdBm1351h-Z-12" target="d_iLRARLSSdBm1351h-Z-14">
          <mxGeometry relative="1" as="geometry" />
        </mxCell>
        <mxCell id="d_iLRARLSSdBm1351h-Z-12" value="ซื้อข้าว" style="rhombus;whiteSpace=wrap;html=1;fillColor=#e1d5e7;strokeColor=#9673a6;" vertex="1" parent="1">
          <mxGeometry x="110" y="620" width="80" height="80" as="geometry" />
        </mxCell>
        <mxCell id="d_iLRARLSSdBm1351h-Z-14" value="ไม่เสียเงิน" style="rounded=0;whiteSpace=wrap;html=1;fillColor=#f8cecc;strokeColor=#b85450;" vertex="1" parent="1">
          <mxGeometry x="90" y="750" width="120" height="60" as="geometry" />
        </mxCell>
        <mxCell id="d_iLRARLSSdBm1351h-Z-15" value="เสียเงิน25" style="rounded=0;whiteSpace=wrap;html=1;fillColor=#f8cecc;strokeColor=#b85450;" vertex="1" parent="1">
          <mxGeometry x="250" y="630" width="120" height="60" as="geometry" />
        </mxCell>
        <mxCell id="d_iLRARLSSdBm1351h-Z-16" value="" style="endArrow=classic;html=1;rounded=0;" edge="1" parent="1">
          <mxGeometry width="50" height="50" relative="1" as="geometry">
            <mxPoint x="210" y="800" as="sourcePoint" />
            <mxPoint x="460" y="770" as="targetPoint" />
            <Array as="points">
              <mxPoint x="410" y="800" />
            </Array>
          </mxGeometry>
        </mxCell>
        <mxCell id="d_iLRARLSSdBm1351h-Z-17" value="" style="endArrow=none;html=1;rounded=0;" edge="1" parent="1">
          <mxGeometry width="50" height="50" relative="1" as="geometry">
            <mxPoint x="370" y="690" as="sourcePoint" />
            <mxPoint x="410" y="800" as="targetPoint" />
            <Array as="points" />
          </mxGeometry>
        </mxCell>
        <mxCell id="d_iLRARLSSdBm1351h-Z-18" value="เดิน+วิ่ง" style="rounded=0;whiteSpace=wrap;html=1;fillColor=#f5f5f5;fontColor=#333333;strokeColor=#666666;" vertex="1" parent="1">
          <mxGeometry x="460" y="600" width="120" height="60" as="geometry" />
        </mxCell>
        <mxCell id="d_iLRARLSSdBm1351h-Z-19" value="นั่งรถส่วนตัวไปต่อ" style="rounded=0;whiteSpace=wrap;html=1;fillColor=#eeeeee;strokeColor=#36393d;" vertex="1" parent="1">
          <mxGeometry x="460" y="740" width="120" height="60" as="geometry" />
        </mxCell>
        <mxCell id="d_iLRARLSSdBm1351h-Z-20" value="" style="edgeStyle=orthogonalEdgeStyle;rounded=0;orthogonalLoop=1;jettySize=auto;html=1;exitX=0.5;exitY=0;exitDx=0;exitDy=0;" edge="1" parent="1" source="d_iLRARLSSdBm1351h-Z-19">
          <mxGeometry relative="1" as="geometry">
            <mxPoint x="519.5" y="720" as="sourcePoint" />
            <mxPoint x="519.5" y="660" as="targetPoint" />
          </mxGeometry>
        </mxCell>
        <mxCell id="d_iLRARLSSdBm1351h-Z-21" value="" style="endArrow=classic;html=1;rounded=0;exitX=0.5;exitY=0;exitDx=0;exitDy=0;" edge="1" parent="1" source="d_iLRARLSSdBm1351h-Z-18">
          <mxGeometry width="50" height="50" relative="1" as="geometry">
            <mxPoint x="350" y="490" as="sourcePoint" />
            <mxPoint x="520" y="540" as="targetPoint" />
          </mxGeometry>
        </mxCell>
        <mxCell id="d_iLRARLSSdBm1351h-Z-22" value="ถึงวิทยลัย" style="shape=process;whiteSpace=wrap;html=1;backgroundOutline=1;fillColor=#1ba1e2;strokeColor=#006EAF;fontColor=#ffffff;" vertex="1" parent="1">
          <mxGeometry x="460" y="480" width="120" height="60" as="geometry" />
        </mxCell>
        <mxCell id="d_iLRARLSSdBm1351h-Z-25" value="No" style="endArrow=classic;html=1;rounded=0;exitX=0.5;exitY=1;exitDx=0;exitDy=0;" edge="1" parent="1">
          <mxGeometry width="50" height="50" relative="1" as="geometry">
            <mxPoint x="149.5" y="700" as="sourcePoint" />
            <mxPoint x="149.5" y="750" as="targetPoint" />
          </mxGeometry>
        </mxCell>
        <mxCell id="d_iLRARLSSdBm1351h-Z-28" value="STOP" style="rounded=1;whiteSpace=wrap;html=1;fillColor=#f0a30a;fontColor=#000000;strokeColor=#BD7000;" vertex="1" parent="1">
          <mxGeometry x="460" y="380" width="120" height="60" as="geometry" />
        </mxCell>
        <mxCell id="d_iLRARLSSdBm1351h-Z-29" value="" style="endArrow=classic;html=1;rounded=0;" edge="1" parent="1">
          <mxGeometry width="50" height="50" relative="1" as="geometry">
            <mxPoint x="520" y="480" as="sourcePoint" />
            <mxPoint x="519.5" y="440" as="targetPoint" />
          </mxGeometry>
        </mxCell>
      </root>
    </mxGraphModel>
  </diagram>
</mxfile>
